<svg width="14.000000" height="13.000000" viewBox="0 0 14 13" fill="none" xmlns="http://www.w3.org/2000/svg" xmlns:xlink="http://www.w3.org/1999/xlink">
	<desc>
			Created with Pixso.
	</desc>
	<defs/>
	<path id="Vector" d="M14 6.09C14 9.46 10.86 12.18 7 12.18C6.3 12.19 5.61 12.1 4.94 11.92C4.43 12.18 3.26 12.67 1.28 12.99C1.11 13.02 0.97 12.84 1.04 12.68C1.35 11.95 1.63 10.98 1.72 10.09C0.65 9.02 0 7.62 0 6.09C0 2.72 3.13 0 7 0C10.86 0 14 2.72 14 6.09ZM4.37 6.09C4.37 6.32 4.28 6.54 4.11 6.71C3.95 6.87 3.73 6.96 3.5 6.96C3.26 6.96 3.04 6.87 2.88 6.71C2.71 6.54 2.62 6.32 2.62 6.09C2.62 5.86 2.71 5.64 2.88 5.47C3.04 5.31 3.26 5.22 3.5 5.22C3.73 5.22 3.95 5.31 4.11 5.47C4.28 5.64 4.37 5.86 4.37 6.09ZM7.87 6.09C7.87 6.32 7.78 6.54 7.61 6.71C7.45 6.87 7.23 6.96 7 6.96C6.76 6.96 6.54 6.87 6.38 6.71C6.21 6.54 6.12 6.32 6.12 6.09C6.12 5.86 6.21 5.64 6.38 5.47C6.54 5.31 6.76 5.22 7 5.22C7.23 5.22 7.45 5.31 7.61 5.47C7.78 5.64 7.87 5.86 7.87 6.09ZM10.5 6.96C10.73 6.96 10.95 6.87 11.11 6.71C11.28 6.54 11.37 6.32 11.37 6.09C11.37 5.86 11.28 5.64 11.11 5.47C10.95 5.31 10.73 5.22 10.5 5.22C10.26 5.22 10.04 5.31 9.88 5.47C9.71 5.64 9.62 5.86 9.62 6.09C9.62 6.32 9.71 6.54 9.88 6.71C10.04 6.87 10.26 6.96 10.5 6.96Z" fill="#1A1A1A" fill-opacity="1.000000" fill-rule="evenodd"/>
</svg>
