<svg width="35.999603" height="35.999603" viewBox="0 0 35.9996 35.9996" fill="none" xmlns="http://www.w3.org/2000/svg" xmlns:xlink="http://www.w3.org/1999/xlink">
	<desc>
			Created with Pixso.
	</desc>
	<defs/>
	<path id="Vector" d="M35.99 18.19L35.99 17.99L35.99 17.8C28.02 17.56 24.38 17.36 21.47 14.52C18.63 11.61 18.43 7.97 18.19 0L17.99 0L17.8 0C17.56 7.97 17.36 11.61 14.52 14.52C11.61 17.36 7.97 17.56 0 17.8L0 17.99L0 18.19C7.97 18.43 11.61 18.63 14.52 21.47C17.36 24.38 17.56 28.02 17.8 35.99L17.99 35.99L18.19 35.99C18.43 28.02 18.63 24.38 21.47 21.47C24.38 18.63 28.02 18.43 35.99 18.19Z" fill="#36BA5F" fill-opacity="1.000000" fill-rule="evenodd"/>
</svg>
