<svg width="19.600891" height="19.600891" viewBox="0 0 19.6009 19.6009" fill="none" xmlns="http://www.w3.org/2000/svg" xmlns:xlink="http://www.w3.org/1999/xlink">
	<desc>
			Created with Pixso.
	</desc>
	<defs/>
	<path id="Shape" d="M5.4447 0C2.43811 0 0 2.43814 0 5.4447L0 14.1562C0 17.1628 2.43811 19.6009 5.4447 19.6009L14.1562 19.6009C17.1628 19.6009 19.6009 17.1628 19.6009 14.1562L19.6009 5.4447C19.6009 2.43814 17.1628 0 14.1562 0L5.4447 0ZM17.4139 3.26666C17.4139 2.66559 16.9261 2.17773 16.325 2.17773C15.7239 2.17773 15.2361 2.66559 15.2361 3.26666C15.2361 3.86777 15.7239 4.35562 16.325 4.35562C16.9261 4.35562 17.4139 3.86777 17.4139 3.26666ZM9.80359 4.3558C12.8102 4.3558 15.2483 6.79391 15.2483 9.80049C15.2483 12.807 12.8102 15.2452 9.80359 15.2452C6.79706 15.2452 4.35889 12.807 4.35889 9.80049C4.35889 6.79391 6.79706 4.3558 9.80359 4.3558ZM6.53149 9.7993C6.53149 7.99509 7.99408 6.53247 9.79828 6.53247C11.6025 6.53247 13.0651 7.99509 13.0651 9.7993C13.0651 11.6035 11.6025 13.0661 9.79828 13.0661C7.99408 13.0661 6.53149 11.6035 6.53149 9.7993Z" clip-rule="evenodd" fill="#36BA5F" fill-opacity="1.000000" fill-rule="evenodd"/>
</svg>
