<svg width="14.000000" height="11.000000" viewBox="0 0 14 11" fill="none" xmlns="http://www.w3.org/2000/svg" xmlns:xlink="http://www.w3.org/1999/xlink">
	<desc>
			Created with Pixso.
	</desc>
	<defs/>
	<path id="Vector" d="M14 2.85L14 8.88C14 9.44 13.76 9.98 13.35 10.38C12.94 10.77 12.39 11 11.81 11L2.18 11C1.6 11 1.05 10.77 0.64 10.38C0.23 9.98 0 9.44 0 8.88L0 2.85L6.77 6.71C6.84 6.74 6.92 6.76 7 6.76C7.07 6.76 7.15 6.74 7.22 6.71L14 2.85ZM11.81 0C12.35 -9.16e-5 12.87 0.19 13.27 0.53C13.67 0.88 13.92 1.36 13.98 1.88L7 5.85L0.01 1.88C0.07 1.36 0.32 0.88 0.72 0.53C1.12 0.19 1.64 -9.16e-5 2.18 0L11.81 0Z" fill="#1A1A1A" fill-opacity="1.000000" fill-rule="nonzero"/>
</svg>
