<svg width="13.000000" height="13.000000" viewBox="0 0 13 13" fill="none" xmlns="http://www.w3.org/2000/svg" xmlns:xlink="http://www.w3.org/1999/xlink">
	<desc>
			Created with Pixso.
	</desc>
	<defs/>
	<path id="Vector" d="M12.39 2.05L10.71 0.37C10.59 0.25 10.45 0.16 10.29 0.09C10.14 0.03 9.97 -3.06e-5 9.8 0C9.46 0 9.14 0.13 8.9 0.37L7.09 2.18C6.97 2.3 6.88 2.44 6.81 2.59C6.75 2.75 6.72 2.91 6.72 3.08C6.72 3.42 6.85 3.75 7.09 3.99L8.41 5.31C8.1 5.99 7.67 6.61 7.14 7.14C6.61 7.67 5.99 8.11 5.31 8.42L3.99 7.09C3.87 6.98 3.73 6.88 3.58 6.82C3.42 6.75 3.25 6.72 3.09 6.72C2.74 6.72 2.42 6.85 2.18 7.09L0.37 8.9C0.25 9.02 0.16 9.16 0.09 9.32C0.03 9.47 -0.01 9.64 0 9.81C0 10.15 0.13 10.47 0.37 10.71L2.05 12.39C2.43 12.78 2.96 13 3.51 13C3.63 13 3.74 12.99 3.84 12.97C5.97 12.62 8.08 11.49 9.78 9.78C11.48 8.09 12.61 5.98 12.97 3.84C13.08 3.19 12.86 2.52 12.39 2.05Z" fill="#1A1A1A" fill-opacity="1.000000" fill-rule="nonzero"/>
</svg>
