<svg width="15.089417" height="14.432648" viewBox="0 0 15.0894 14.4326" fill="none" xmlns="http://www.w3.org/2000/svg" xmlns:xlink="http://www.w3.org/1999/xlink">
	<desc>
			Created with Pixso.
	</desc>
	<defs/>
	<path id="Fill 1" d="M10.53 3.51C10.21 3.52 9.9 3.37 9.71 3.11L7.66 0.42C7.13 -0.27 6.04 -0.09 5.76 0.74L4.69 3.95C4.59 4.25 4.35 4.49 4.04 4.59L0.76 5.6C-0.12 5.87 -0.28 7.05 0.49 7.56L3.18 9.29C3.47 9.48 3.64 9.8 3.64 10.15L3.59 13.32C3.57 14.21 4.58 14.74 5.31 14.22L8.19 12.16C8.44 11.98 8.76 11.92 9.06 12.01L12.45 13.03C13.31 13.29 14.09 12.46 13.79 11.62L12.71 8.64C12.6 8.31 12.66 7.95 12.87 7.68L14.85 5.17C15.42 4.44 14.88 3.38 13.96 3.4L10.53 3.51Z" fill="#1A1A1A" fill-opacity="1.000000" fill-rule="evenodd"/>
	<path id="Fill 1" d="M7.66 0.42C7.13 -0.27 6.04 -0.09 5.76 0.74L4.69 3.95C4.59 4.25 4.35 4.49 4.04 4.59L0.76 5.6C-0.12 5.87 -0.28 7.05 0.49 7.56L3.18 9.29C3.47 9.48 3.64 9.8 3.64 10.15L3.59 13.32C3.57 14.21 4.58 14.74 5.31 14.22L8.19 12.16C8.44 11.98 8.76 11.92 9.06 12.01L12.45 13.03C13.31 13.29 14.09 12.46 13.79 11.62L12.71 8.64C12.6 8.31 12.66 7.95 12.87 7.68L14.85 5.17C15.42 4.44 14.88 3.38 13.96 3.4L10.53 3.51C10.21 3.52 9.9 3.37 9.71 3.11L7.66 0.42Z" stroke="#017144" stroke-opacity="0" stroke-width="0.000000"/>
</svg>
