<svg width="18.900543" height="21.512589" viewBox="0 0 18.9005 21.5126" fill="none" xmlns="http://www.w3.org/2000/svg" xmlns:xlink="http://www.w3.org/1999/xlink">
	<desc>
			Created with Pixso.
	</desc>
	<defs/>
	<path id="Vector" d="M18.89 5.38C17.66 5.38 16.52 4.97 15.61 4.29C14.57 3.5 13.81 2.34 13.55 1.01C13.48 0.68 13.45 0.34 13.45 0L9.93 0L9.93 9.59L9.93 14.85C9.93 16.26 9.01 17.45 7.74 17.87C7.38 17.99 6.98 18.05 6.56 18.02C6.04 17.99 5.54 17.83 5.11 17.58C4.19 17.03 3.57 16.04 3.56 14.9C3.53 13.12 4.97 11.67 6.74 11.67C7.09 11.67 7.43 11.73 7.74 11.83L7.74 9.21L7.74 8.27C7.41 8.22 7.07 8.19 6.73 8.19C4.79 8.19 2.97 9 1.67 10.46C0.69 11.56 0.1 12.96 0.01 14.43C-0.11 16.36 0.6 18.2 1.97 19.56C2.17 19.76 2.38 19.94 2.6 20.11C3.78 21.02 5.22 21.51 6.73 21.51C7.07 21.51 7.41 21.48 7.74 21.43C9.16 21.22 10.46 20.58 11.49 19.56C12.76 18.31 13.46 16.65 13.47 14.88L13.45 7.03C14.05 7.49 14.71 7.88 15.42 8.18C16.52 8.64 17.69 8.88 18.9 8.88L18.9 6.33L18.9 5.38C18.9 5.38 18.89 5.38 18.89 5.38Z" fill="#36BA5F" fill-opacity="1.000000" fill-rule="nonzero"/>
</svg>
