<svg width="23.300903" height="18.936127" viewBox="0 0 23.3009 18.9361" fill="none" xmlns="http://www.w3.org/2000/svg" xmlns:xlink="http://www.w3.org/1999/xlink">
	<desc>
			Created with Pixso.
	</desc>
	<defs/>
	<path id="Vector" d="M23.3 2.24C22.44 2.62 21.52 2.87 20.55 2.99C21.54 2.4 22.29 1.46 22.65 0.34C21.73 0.89 20.71 1.29 19.62 1.5C18.74 0.58 17.5 0 16.13 0C13.49 0 11.35 2.14 11.35 4.78C11.35 5.15 11.39 5.51 11.47 5.86C7.5 5.67 3.97 3.76 1.62 0.87C1.21 1.58 0.97 2.4 0.97 3.27C0.97 4.93 1.81 6.4 3.1 7.25C2.31 7.23 1.58 7.01 0.93 6.65C0.93 6.67 0.93 6.69 0.93 6.71C0.93 9.03 2.58 10.96 4.77 11.4C4.36 11.51 3.94 11.57 3.51 11.57C3.2 11.57 2.9 11.54 2.61 11.48C3.22 13.38 4.98 14.76 7.07 14.8C5.44 16.09 3.38 16.85 1.13 16.85C0.75 16.85 0.37 16.83 0 16.78C2.11 18.14 4.62 18.93 7.32 18.93C16.12 18.93 20.92 11.65 20.92 5.33C20.92 5.12 20.92 4.92 20.91 4.71C21.84 4.04 22.66 3.2 23.3 2.24Z" fill="#36BA5F" fill-opacity="1.000000" fill-rule="nonzero"/>
</svg>
