<svg width="25.328979" height="13.331070" viewBox="0 0 25.329 13.3311" fill="none" xmlns="http://www.w3.org/2000/svg" xmlns:xlink="http://www.w3.org/1999/xlink">
	<desc>
			Created with Pixso.
	</desc>
	<defs/>
	<path id="Shape" d="M22.57 9.36C24.59 11.12 25.01 11.75 25.08 11.86C25.92 13.17 24.15 13.33 24.15 13.33L20.42 13.33C20.42 13.33 19.52 13.34 18.74 12.83C17.48 12.02 16.16 10.44 15.23 10.72C14.45 10.94 14.46 11.98 14.46 12.87C14.46 13.18 14.18 13.33 13.55 13.33C12.93 13.33 12.67 13.33 12.39 13.33C10.35 13.33 8.13 12.65 5.93 10.38C2.8 7.17 0.06 0.71 0.06 0.71C0.06 0.71 -0.1 0.39 0.08 0.19C0.28 -0.03 0.82 0 0.82 0L4.43 0C4.43 0 4.77 0.06 5.02 0.23C5.22 0.37 5.33 0.63 5.33 0.63C5.33 0.63 5.94 2.6 6.71 3.86C8.22 6.31 8.92 6.37 9.43 6.11C10.18 5.72 9.94 3.12 9.94 3.12C9.94 3.12 9.97 2 9.58 1.5C9.28 1.12 8.7 0.91 8.45 0.88C8.25 0.85 8.59 0.5 9.02 0.3C9.6 0.05 10.39 -0.02 11.74 0C12.8 0.01 13.11 0.07 13.52 0.16C14.76 0.44 14.46 1.19 14.46 3.81C14.46 4.65 14.34 5.83 14.98 6.22C15.26 6.39 16.21 6.59 17.9 3.89C18.71 2.61 19.35 0.48 19.35 0.48C19.35 0.48 19.48 0.25 19.68 0.13C19.89 0.02 19.89 0.02 20.17 0.02C20.46 0.02 23.34 0 23.98 0C24.61 0 25.2 -0.01 25.3 0.35C25.45 0.88 24.84 2.67 23.28 4.62C20.73 7.81 20.45 7.51 22.57 9.36Z" fill="#36BA5F" fill-opacity="1.000000" fill-rule="nonzero"/>
</svg>
